<svg width="124" height="83" viewBox="0 0 124 83" fill="none" xmlns="http://www.w3.org/2000/svg">
<path d="M57.4515 62.8723C56.216 62.8723 55.1525 62.6221 54.261 62.1216C53.3747 61.6159 52.6918 60.9017 52.2122 59.9789C51.7326 59.051 51.4927 57.9536 51.4927 56.6867C51.4927 55.4512 51.7326 54.3668 52.2122 53.4336C52.6918 52.5004 53.3669 51.7732 54.2375 51.2519C55.1134 50.7305 56.1404 50.4699 57.3186 50.4699C58.111 50.4699 58.8487 50.5976 59.5316 50.853C60.2198 51.1033 60.8193 51.4813 61.3302 51.9869C61.8463 52.4926 62.2478 53.1287 62.5345 53.895C62.8212 54.6561 62.9646 55.5476 62.9646 56.5694V57.4844H52.8221V55.4199H59.8288C59.8288 54.9403 59.7245 54.5154 59.516 54.1452C59.3075 53.7751 59.0181 53.4858 58.648 53.2772C58.2831 53.0635 57.8582 52.9566 57.3733 52.9566C56.8677 52.9566 56.4193 53.0739 56.0283 53.3085C55.6425 53.5379 55.3402 53.8481 55.1212 54.2391C54.9022 54.6249 54.7902 55.055 54.7849 55.5294V57.4922C54.7849 58.0865 54.8944 58.6 55.1134 59.0327C55.3375 59.4654 55.653 59.7991 56.0596 60.0337C56.4662 60.2683 56.9485 60.3856 57.5063 60.3856C57.8764 60.3856 58.2153 60.3334 58.5229 60.2292C58.8305 60.1249 59.0937 59.9685 59.3127 59.76C59.5316 59.5514 59.6985 59.296 59.8132 58.9936L62.8942 59.1969C62.7378 59.9372 62.4172 60.5837 61.9324 61.1363C61.4527 61.6837 60.8324 62.1112 60.0712 62.4187C59.3153 62.7211 58.4421 62.8723 57.4515 62.8723ZM75.1324 54.0514L72.0826 54.2391C72.0305 53.9784 71.9184 53.7438 71.7464 53.5353C71.5743 53.3215 71.3476 53.1521 71.0661 53.027C70.7897 52.8967 70.4587 52.8315 70.0729 52.8315C69.5568 52.8315 69.1215 52.941 68.767 53.1599C68.4125 53.3737 68.2352 53.6604 68.2352 54.0201C68.2352 54.3069 68.3499 54.5493 68.5793 54.7474C68.8087 54.9455 69.2023 55.1045 69.7601 55.2244L71.9341 55.6623C73.1018 55.9021 73.9725 56.2879 74.5459 56.8197C75.1194 57.3514 75.4061 58.05 75.4061 58.9154C75.4061 59.7026 75.1741 60.3934 74.7101 60.9877C74.2514 61.582 73.6206 62.046 72.8177 62.3796C72.0201 62.7081 71.0999 62.8723 70.0573 62.8723C68.4672 62.8723 67.2004 62.5412 66.2568 61.8792C65.3184 61.2119 64.7684 60.3047 64.6068 59.1578L67.8833 58.9858C67.9824 59.4706 68.2222 59.8408 68.6028 60.0962C68.9833 60.3465 69.4708 60.4716 70.0651 60.4716C70.649 60.4716 71.1182 60.3595 71.4727 60.1353C71.8324 59.9059 72.0149 59.6114 72.0201 59.2517C72.0149 58.9493 71.8871 58.7017 71.6369 58.5088C71.3867 58.3107 71.0009 58.1595 70.4796 58.0552L68.3995 57.6408C67.2265 57.4062 66.3532 56.9995 65.7798 56.4208C65.2115 55.8422 64.9274 55.1045 64.9274 54.2078C64.9274 53.4362 65.1359 52.7715 65.553 52.2137C65.9753 51.6559 66.567 51.2258 67.3281 50.9234C68.0945 50.6211 68.9912 50.4699 70.0182 50.4699C71.5352 50.4699 72.7291 50.7905 73.5997 51.4317C74.4755 52.073 74.9864 52.9462 75.1324 54.0514ZM83.8927 50.6263V53.1287H76.6593V50.6263H83.8927ZM78.3014 47.7485H81.6327V58.9467C81.6327 59.2543 81.6797 59.4941 81.7735 59.6661C81.8673 59.8329 81.9977 59.9502 82.1645 60.018C82.3365 60.0858 82.5346 60.1197 82.7588 60.1197C82.9152 60.1197 83.0716 60.1066 83.228 60.0806C83.3844 60.0493 83.5043 60.0258 83.5877 60.0102L84.1117 62.4891C83.9448 62.5412 83.7102 62.6012 83.4079 62.669C83.1055 62.742 82.738 62.7863 82.3053 62.8019C81.5024 62.8332 80.7986 62.7263 80.1939 62.4813C79.5943 62.2363 79.1278 61.8557 78.7941 61.3396C78.4605 60.8235 78.2962 60.1718 78.3014 59.3846V47.7485ZM86.0627 62.6377V50.6263H89.394V62.6377H86.0627ZM87.7362 49.0779C87.2409 49.0779 86.8161 48.9137 86.4616 48.5853C86.1123 48.2516 85.9376 47.8528 85.9376 47.3888C85.9376 46.93 86.1123 46.5364 86.4616 46.208C86.8161 45.8744 87.2409 45.7075 87.7362 45.7075C88.2315 45.7075 88.6537 45.8744 89.003 46.208C89.3575 46.5364 89.5348 46.93 89.5348 47.3888C89.5348 47.8528 89.3575 48.2516 89.003 48.5853C88.6537 48.9137 88.2315 49.0779 87.7362 49.0779ZM95.4877 62.8645C94.7214 62.8645 94.0384 62.7315 93.4389 62.4657C92.8394 62.1946 92.365 61.7957 92.0157 61.2692C91.6716 60.7375 91.4995 60.0754 91.4995 59.2829C91.4995 58.6156 91.6221 58.0552 91.8671 57.6017C92.1121 57.1481 92.4458 56.7832 92.868 56.5069C93.2903 56.2306 93.7699 56.022 94.3069 55.8813C94.8491 55.7405 95.4173 55.6415 96.0117 55.5841C96.7102 55.5111 97.2733 55.4434 97.7008 55.3808C98.1282 55.313 98.4384 55.214 98.6313 55.0836C98.8242 54.9533 98.9207 54.7604 98.9207 54.505V54.458C98.9207 53.9628 98.7643 53.5796 98.4515 53.3085C98.1439 53.0374 97.706 52.9019 97.1377 52.9019C96.5382 52.9019 96.0612 53.0348 95.7067 53.3007C95.3522 53.5614 95.1176 53.8898 95.0029 54.286L91.9218 54.0358C92.0782 53.3059 92.3858 52.6751 92.8446 52.1433C93.3033 51.6064 93.8951 51.1945 94.6197 50.9078C95.3496 50.6158 96.1941 50.4699 97.1534 50.4699C97.8207 50.4699 98.4593 50.5481 99.0692 50.7045C99.6844 50.8609 100.229 51.1033 100.704 51.4317C101.183 51.7602 101.561 52.1824 101.838 52.6986C102.114 53.2095 102.252 53.822 102.252 54.5362V62.6377H99.0927V60.972H98.9989C98.806 61.3474 98.5479 61.6784 98.2247 61.9652C97.9015 62.2467 97.5131 62.4683 97.0595 62.6299C96.606 62.7863 96.082 62.8645 95.4877 62.8645ZM96.4417 60.5654C96.9318 60.5654 97.3645 60.469 97.7399 60.2761C98.1152 60.078 98.4098 59.8121 98.6235 59.4784C98.8373 59.1448 98.9441 58.7668 98.9441 58.3445V57.0699C98.8399 57.1377 98.6965 57.2002 98.514 57.2576C98.3368 57.3097 98.1361 57.3592 97.9119 57.4062C97.6877 57.4479 97.4636 57.487 97.2394 57.5235C97.0152 57.5547 96.8119 57.5834 96.6294 57.6095C96.2384 57.6668 95.897 57.7581 95.605 57.8832C95.3131 58.0083 95.0863 58.1777 94.9247 58.3915C94.7631 58.6 94.6823 58.8607 94.6823 59.1735C94.6823 59.627 94.8465 59.9737 95.1749 60.2135C95.5086 60.4481 95.9308 60.5654 96.4417 60.5654ZM106.784 62.841C106.268 62.841 105.824 62.6585 105.454 62.2936C105.089 61.9235 104.907 61.4803 104.907 60.9642C104.907 60.4533 105.089 60.0154 105.454 59.6505C105.824 59.2855 106.268 59.1031 106.784 59.1031C107.284 59.1031 107.722 59.2855 108.097 59.6505C108.473 60.0154 108.66 60.4533 108.66 60.9642C108.66 61.3083 108.572 61.6237 108.395 61.9104C108.222 62.192 107.996 62.4187 107.714 62.5908C107.433 62.7576 107.122 62.841 106.784 62.841Z" fill="#FF5A5F"/>
<path d="M5.25394 62.9332V12.3795H15.9423V33.2378H37.6399V12.3795H48.3036V62.9332H37.6399V42.0502H15.9423V62.9332H5.25394Z" fill="#FF5A5F"/>
</svg>
